G04 DipTrace 4.3.0.3*
G04 room_panel_rev1_border.GKO*
%MOIN*%
G04 #@! TF.FileFunction,Profile*
G04 #@! TF.Part,Single*
%ADD12C,0.005512*%
%FSLAX26Y26*%
G04*
G70*
G90*
G75*
G01*
G04 BoardOutline*
%LPD*%
X1191995Y5059055D2*
D12*
X0D1*
Y0D1*
X1191995D1*
Y5059055D1*
X426299Y3130906D2*
X421117Y3094857D1*
X405988Y3061730D1*
X382138Y3034206D1*
X351501Y3014516D1*
X316558Y3004255D1*
X280138D1*
X245194Y3014516D1*
X214556Y3034205D1*
X190707Y3061728D1*
X175579Y3094856D1*
X170395Y3130904D1*
X175577Y3166954D1*
X190706Y3200083D1*
X214556Y3227606D1*
X245194Y3247295D1*
X280138Y3257556D1*
X316558D1*
X351501Y3247295D1*
X382139Y3227605D1*
X405988Y3200081D1*
X421118Y3166953D1*
X426301Y3130904D1*
X1026299Y2530906D2*
X1021117Y2494857D1*
X1005988Y2461730D1*
X982138Y2434206D1*
X951501Y2414516D1*
X916558Y2404255D1*
X880138D1*
X845194Y2414516D1*
X814556Y2434205D1*
X790707Y2461728D1*
X775579Y2494856D1*
X770395Y2530904D1*
X775577Y2566954D1*
X790706Y2600083D1*
X814556Y2627606D1*
X845194Y2647295D1*
X880138Y2657556D1*
X916558D1*
X951501Y2647295D1*
X982139Y2627605D1*
X1005988Y2600081D1*
X1021118Y2566953D1*
X1026301Y2530904D1*
X1026299Y1930906D2*
X1021117Y1894857D1*
X1005988Y1861730D1*
X982138Y1834206D1*
X951501Y1814516D1*
X916558Y1804255D1*
X880138D1*
X845194Y1814516D1*
X814556Y1834205D1*
X790707Y1861728D1*
X775579Y1894856D1*
X770395Y1930904D1*
X775577Y1966954D1*
X790706Y2000083D1*
X814556Y2027606D1*
X845194Y2047295D1*
X880138Y2057556D1*
X916558D1*
X951501Y2047295D1*
X982139Y2027605D1*
X1005988Y2000081D1*
X1021118Y1966953D1*
X1026301Y1930904D1*
X1023360Y4329619D2*
X1018297Y4294403D1*
X1003517Y4262039D1*
X980218Y4235151D1*
X950287Y4215916D1*
X916150Y4205892D1*
X880572Y4205891D1*
X846434Y4215915D1*
X816504Y4235150D1*
X793205Y4262038D1*
X778424Y4294402D1*
X773361Y4329618D1*
X778423Y4364836D1*
X793203Y4397199D1*
X816503Y4424088D1*
X846433Y4443324D1*
X880571Y4453348D1*
X916151Y4453346D1*
X950287Y4443323D1*
X980219Y4424088D1*
X1003518Y4397198D1*
X1018298Y4364835D1*
X1023361Y4329618D1*
X423360Y4329619D2*
X418297Y4294403D1*
X403517Y4262039D1*
X380218Y4235151D1*
X350287Y4215916D1*
X316150Y4205892D1*
X280572Y4205891D1*
X246434Y4215915D1*
X216504Y4235150D1*
X193205Y4262038D1*
X178424Y4294402D1*
X173361Y4329618D1*
X178423Y4364836D1*
X193203Y4397199D1*
X216503Y4424088D1*
X246433Y4443324D1*
X280571Y4453348D1*
X316151Y4453346D1*
X350287Y4443323D1*
X380219Y4424088D1*
X403518Y4397198D1*
X418298Y4364835D1*
X423361Y4329618D1*
X958399Y4029619D2*
X950356Y3999600D1*
X928381Y3977625D1*
X898361Y3969580D1*
X868341Y3977623D1*
X846366Y3999598D1*
X838322Y4029618D1*
X846365Y4059639D1*
X868341Y4081615D1*
X898361Y4089659D1*
X928381Y4081614D1*
X950357Y4059638D1*
X958400Y4029618D1*
X738189Y729580D2*
X733427Y693407D1*
X719465Y659698D1*
X697253Y630752D1*
X668308Y608541D1*
X634600Y594579D1*
X598427Y589816D1*
X562253Y594579D1*
X528545Y608541D1*
X499598Y630752D1*
X477387Y659697D1*
X463425Y693406D1*
X458663Y729579D1*
X463424Y765753D1*
X477387Y799462D1*
X499598Y828408D1*
X528545Y850619D1*
X562253Y864581D1*
X598427Y869344D1*
X634600Y864581D1*
X668308Y850618D1*
X697255Y828407D1*
X719466Y799461D1*
X733428Y765752D1*
X738190Y729579D1*
X418832Y118110D2*
X417546Y105420D1*
X413885Y93596D1*
X408071Y82887D1*
X400381Y73570D1*
X391063Y65879D1*
X380367Y60066D1*
X368543Y56404D1*
X355840Y55118D1*
X342060D1*
X328281D1*
X314501D1*
X300722D1*
X286942D1*
X273176D1*
X259396D1*
X245617D1*
X232913Y56404D1*
X221089Y60066D1*
X210394Y65879D1*
X201063Y73570D1*
X193373Y82887D1*
X187559Y93596D1*
X183898Y105420D1*
X182612Y118110D1*
X183898Y130801D1*
X187559Y142625D1*
X193373Y153333D1*
X201063Y162651D1*
X210394Y170341D1*
X221089Y176155D1*
X232913Y179816D1*
X245617Y181102D1*
X259396D1*
X273176D1*
X286942D1*
X300722D1*
X314501D1*
X328281D1*
X342060D1*
X355840D1*
X368543Y179816D1*
X380367Y176155D1*
X391063Y170341D1*
X400381Y162651D1*
X408071Y153333D1*
X413885Y142625D1*
X417546Y130801D1*
X418832Y118110D1*
Y4940945D2*
X417546Y4928255D1*
X413885Y4916430D1*
X408071Y4905735D1*
X400381Y4896404D1*
X391063Y4888714D1*
X380367Y4882913D1*
X368543Y4879239D1*
X355840Y4877953D1*
X342060D1*
X328281D1*
X314501D1*
X300722D1*
X286942D1*
X273176D1*
X259396D1*
X245617D1*
X232913Y4879239D1*
X221089Y4882913D1*
X210394Y4888714D1*
X201063Y4896404D1*
X193373Y4905735D1*
X187559Y4916430D1*
X183898Y4928255D1*
X182612Y4940945D1*
X183898Y4953635D1*
X187559Y4965472D1*
X193373Y4976168D1*
X201063Y4985486D1*
X210394Y4993176D1*
X221089Y4998990D1*
X232913Y5002664D1*
X245617Y5003937D1*
X259396D1*
X273176D1*
X286942D1*
X300722D1*
X314501D1*
X328281D1*
X342060D1*
X355840D1*
X368543Y5002664D1*
X380367Y4998990D1*
X391063Y4993176D1*
X400381Y4985486D1*
X408071Y4976168D1*
X413885Y4965472D1*
X417546Y4953635D1*
X418832Y4940945D1*
X196404Y3727572D2*
X196391Y3728609D1*
X196470Y3731207D1*
X196654Y3733241D1*
X196942Y3735249D1*
X197336Y3737218D1*
X197822Y3739160D1*
X198399Y3741063D1*
X199068Y3742913D1*
X199829Y3744724D1*
X200669Y3746496D1*
X201601Y3748202D1*
X202612Y3749869D1*
X203701Y3751470D1*
X204869Y3753018D1*
X206102Y3754514D1*
X207415Y3755932D1*
X208793Y3757297D1*
X210236Y3758583D1*
X211732Y3759803D1*
X213294Y3760945D1*
X214921Y3762021D1*
X216588Y3763005D1*
X218320Y3763924D1*
X220092Y3764751D1*
X221916Y3765486D1*
X223780Y3766129D1*
X225696Y3766680D1*
X227638Y3767152D1*
X229619Y3767507D1*
X231640Y3767769D1*
X233688Y3767927D1*
X957795Y3767953D1*
X959843Y3767822D1*
X961864Y3767585D1*
X963858Y3767244D1*
X965814Y3766811D1*
X967730Y3766273D1*
X969606Y3765656D1*
X971444Y3764934D1*
X973228Y3764134D1*
X974974Y3763241D1*
X976654Y3762270D1*
X978294Y3761220D1*
X979869Y3760105D1*
X981391Y3758898D1*
X982848Y3757625D1*
X984239Y3756286D1*
X985564Y3754869D1*
X986824Y3753399D1*
X988005Y3751864D1*
X989108Y3750276D1*
X990144Y3748622D1*
X991089Y3746929D1*
X991955Y3745171D1*
X992743Y3743373D1*
X993438Y3741522D1*
X994042Y3739633D1*
X994541Y3737717D1*
X994961Y3735748D1*
X995276Y3733740D1*
X995486Y3731719D1*
X995591Y3729659D1*
X995577Y3727060D1*
X995433Y3725000D1*
X995197Y3722979D1*
X994869Y3720984D1*
X994423Y3719029D1*
X993898Y3717113D1*
X993268Y3715236D1*
X992559Y3713399D1*
X991759Y3711614D1*
X990866Y3709869D1*
X989895Y3708189D1*
X988845Y3706549D1*
X987717Y3704974D1*
X986509Y3703451D1*
X985236Y3701995D1*
X983898Y3700604D1*
X982493Y3699278D1*
X981024Y3698018D1*
X979488Y3696837D1*
X977887Y3695735D1*
X976247Y3694698D1*
X974541Y3693753D1*
X972795Y3692887D1*
X970984Y3692100D1*
X969147Y3691404D1*
X967257Y3690814D1*
X965328Y3690302D1*
X963360Y3689882D1*
X961365Y3689580D1*
X959331Y3689370D1*
X957270Y3689252D1*
X234199Y3689278D1*
X232152Y3689409D1*
X230118Y3689646D1*
X228136Y3689987D1*
X226181Y3690420D1*
X224265Y3690945D1*
X222388Y3691575D1*
X220551Y3692283D1*
X218753Y3693097D1*
X217021Y3693976D1*
X215328Y3694948D1*
X213701Y3695997D1*
X212113Y3697126D1*
X210604Y3698333D1*
X209147Y3699606D1*
X207756Y3700945D1*
X206430Y3702349D1*
X205171Y3703832D1*
X203990Y3705367D1*
X202874Y3706955D1*
X201850Y3708609D1*
X200892Y3710302D1*
X200026Y3712060D1*
X199252Y3713858D1*
X198556Y3715696D1*
X197953Y3717585D1*
X197441Y3719514D1*
X197034Y3721483D1*
X196719Y3723478D1*
X196509Y3725512D1*
X196404Y3727572D1*
M02*
