<?xml version='1.0' encoding='UTF-8'?>
<svg xmlns="http://www.w3.org/2000/svg" xmlns:xlink="http://www.w3.org/1999/xlink" width="60.96mm" height="128.5mm" viewBox="-0.5102 0 172.8005 364.2500">
  <defs>
    <linearGradient id="linear-gradient" x1="63.22" y1="64.71" x2="65.36" y2="40.33" gradientUnits="userSpaceOnUse">
      <stop offset="0" stop-color="#b83330" />
      <stop offset="1" stop-color="#ee634a" />
    </linearGradient>
    <linearGradient id="linear-gradient-2" x1="63.22" y1="107.91" x2="65.36" y2="83.53" gradientUnits="userSpaceOnUse">
      <stop offset="0" stop-color="#444" />
      <stop offset="1" stop-color="#a4a4a4" />
    </linearGradient>
    <linearGradient id="linear-gradient-3" x1="20.02" y1="107.91" x2="22.16" xlink:href="#linear-gradient-2" />
    <linearGradient id="linear-gradient-4" x1="149.62" x2="151.76" y2="40.33" xlink:href="#linear-gradient" />
    <linearGradient id="linear-gradient-5" x1="149.62" x2="151.76" y2="83.53" xlink:href="#linear-gradient-2" />
    <linearGradient id="linear-gradient-6" x1="106.42" y1="107.91" x2="108.56" xlink:href="#linear-gradient-2" />
  </defs>
  <g id="Panel">
    <rect x="-0.5102" y="0" width="172.8005" height="364.2500" fill="#1e1e1e" /></g>
  <g id="Graphics">
    <g>
      <polygon points="68.93 149.19 68.96 149.3 69 149.41 69.05 149.51 69.12 149.61 69.19 149.69 69.26 149.77 69.35 149.85 69.44 149.91 69.54 149.97 69.64 150.01 69.75 150.05 69.79 150.05 69.83 150.06 69.86 150.07 69.9 150.07 69.94 150.08 69.98 150.08 70.01 150.08 70.05 150.08 70.13 150.08 70.2 150.07 70.27 150.06 70.35 150.05 70.42 150.02 70.49 150 70.56 149.97 70.62 149.93 70.81 149.79 70.97 149.63 71.08 149.44 71.16 149.23 71.2 149.01 71.19 148.79 71.14 148.57 71.05 148.36 70.91 148.17 70.74 148.02 70.55 147.9 70.35 147.82 70.13 147.79 69.91 147.79 69.69 147.84 69.47 147.94 69.38 148 69.29 148.07 69.21 148.15 69.14 148.23 69.07 148.33 69.02 148.42 68.97 148.53 68.94 148.64 68.91 148.75 68.9 148.86 68.9 148.97 68.91 149.08 68.93 149.19" fill="#efcb8f" />
      <polygon points="69.02 129.49 69.13 129.67 69.29 129.84 69.47 129.98 69.54 130.01 69.61 130.04 69.68 130.07 69.75 130.09 69.83 130.11 69.9 130.12 69.97 130.13 70.05 130.13 70.09 130.13 70.12 130.13 70.16 130.13 70.2 130.12 70.24 130.12 70.27 130.11 70.31 130.1 70.35 130.09 70.46 130.06 70.56 130.01 70.66 129.96 70.75 129.89 70.84 129.82 70.91 129.74 70.98 129.65 71.05 129.56 71.1 129.45 71.14 129.35 71.17 129.24 71.19 129.13 71.2 129.02 71.2 128.91 71.18 128.8 71.16 128.68 71.13 128.57 71.08 128.47 71.03 128.37 70.96 128.28 70.89 128.2 70.81 128.12 70.72 128.05 70.62 127.98 70.52 127.93 70.42 127.89 70.31 127.86 70.2 127.84 70.09 127.83 69.98 127.83 69.86 127.85 69.75 127.87 69.64 127.9 69.54 127.95 69.44 128 69.35 128.07 69.26 128.14 69.19 128.22 69.12 128.31 69.05 128.41 68.96 128.62 68.91 128.84 68.9 129.06 68.94 129.28 69.02 129.49" fill="#efcb8f" />
      <polygon points="63.23 127.88 63.34 128.08 63.48 128.25 63.65 128.39 63.84 128.5 64.06 128.56 64.29 128.59 64.52 128.56 64.74 128.5 64.93 128.39 65.1 128.25 65.24 128.08 65.35 127.88 65.42 127.67 65.44 127.44 65.42 127.21 65.35 126.99 65.24 126.8 65.1 126.62 64.93 126.48 64.79 126.41 64.79 104.73 63.79 104.73 63.79 126.41 63.65 126.48 63.48 126.62 63.34 126.8 63.23 126.99 63.16 127.21 63.14 127.44 63.16 127.67 63.23 127.88" fill="#efcb8f" />
      <polygon points="76.87 138.51 76.76 138.31 76.62 138.14 76.45 138 76.26 137.9 76.04 137.83 75.81 137.81 75.58 137.83 75.36 137.9 75.17 138 75 138.14 74.86 138.31 74.75 138.51 74.68 138.73 74.66 138.96 74.68 139.19 74.75 139.4 74.86 139.6 75 139.77 75.17 139.91 75.36 140.02 75.58 140.08 75.81 140.11 76.04 140.08 76.26 140.02 76.45 139.91 76.62 139.77 76.76 139.6 76.87 139.4 76.94 139.19 76.96 138.96 76.94 138.73 76.87 138.51" fill="#efcb8f" />
      <polygon points="55.43 144.46 55.4 144.35 55.36 144.24 55.31 144.14 55.25 144.05 55.18 143.96 55.1 143.88 55.01 143.8 54.92 143.74 54.82 143.69 54.72 143.64 54.61 143.61 54.5 143.58 54.39 143.57 54.27 143.57 54.16 143.58 54.05 143.6 53.94 143.63 53.84 143.67 53.74 143.72 53.64 143.78 53.55 143.85 53.47 143.93 53.4 144.02 53.34 144.11 53.28 144.21 53.24 144.31 53.2 144.42 53.18 144.53 53.16 144.64 53.16 144.76 53.17 144.87 53.19 144.98 53.22 145.09 53.26 145.19 53.32 145.29 53.4 145.42 53.51 145.54 53.62 145.64 53.75 145.72 53.88 145.78 54.02 145.83 54.17 145.86 54.31 145.87 54.39 145.86 54.46 145.86 54.53 145.85 54.61 145.83 54.68 145.81 54.75 145.78 54.82 145.75 54.89 145.71 54.98 145.65 55.07 145.58 55.15 145.5 55.23 145.42 55.29 145.33 55.34 145.23 55.39 145.12 55.42 145.02 55.45 144.9 55.46 144.79 55.46 144.68 55.45 144.57 55.43 144.46" fill="#efcb8f" />
      <polygon points="55.45 133.01 55.42 132.9 55.39 132.79 55.34 132.69 55.29 132.59 55.23 132.5 55.15 132.41 55.07 132.33 54.98 132.26 54.89 132.2 54.79 132.15 54.68 132.11 54.57 132.08 54.46 132.06 54.35 132.05 54.24 132.05 54.13 132.06 54.02 132.09 53.91 132.12 53.8 132.17 53.7 132.22 53.61 132.28 53.53 132.36 53.45 132.44 53.38 132.53 53.32 132.62 53.26 132.72 53.22 132.83 53.19 132.94 53.17 133.05 53.16 133.16 53.16 133.27 53.18 133.38 53.2 133.5 53.24 133.6 53.28 133.71 53.34 133.81 53.4 133.9 53.47 133.98 53.55 134.06 53.64 134.13 53.74 134.19 53.81 134.23 53.87 134.26 53.94 134.29 54.02 134.31 54.09 134.33 54.16 134.34 54.24 134.35 54.31 134.35 54.35 134.35 54.39 134.35 54.42 134.34 54.46 134.34 54.5 134.33 54.54 134.33 54.57 134.32 54.61 134.31 54.72 134.27 54.82 134.23 54.92 134.17 55.01 134.11 55.1 134.04 55.18 133.96 55.25 133.87 55.31 133.77 55.36 133.67 55.4 133.57 55.43 133.46 55.45 133.35 55.46 133.24 55.46 133.12 55.45 133.01" fill="#efcb8f" />
      <path d="M57.15,149.16l.03.14.04.13.05.13.07.12.08.11.09.1.1.1.11.09.12.08.08.04.08.04.09.03.09.03.09.02h.09s.09.02.09.02h.09s.19,0,.19,0l.18-.04.17-.06.16-.08.15-.1.14-.12.12-.14.1-.15.06-.12.05-.13.04-.13.02-.13v-.14s0-.14,0-.14l-.02-.14-.03-.14-.04-.13-.05-.13-.07-.12-.08-.11-.09-.1-.1-.09-.11-.09-.12-.08-.08-.04-.08-.04-.09-.03-.09-.03-.09-.02h-.09s-.09-.02-.09-.02h-.09s-.19,0-.19,0l-.18.04-.17.06-.16.08-.15.1-.14.12-.12.14-.1.15-.06.12-.05.13-.04.13-.02.13v.14s0,.14,0,.14l.02.14ZM57.64,148.82l.04-.17.07-.17.07-.1.08-.09.09-.08.1-.06.1-.05.11-.04.11-.02h.12s.06,0,.06,0h.06s.06.01.06.01h.06s.06.03.06.03l.06.02.05.02.05.03.15.11.12.13.09.15.06.16.03.17v.17s-.04.17-.04.17l-.07.17-.07.1-.08.09-.09.08-.1.06-.1.05-.11.04-.11.02h-.12s-.06,0-.06,0h-.06s-.06-.01-.06-.01h-.06s-.06-.03-.06-.03l-.06-.02-.05-.02-.05-.03-.15-.11-.12-.13-.09-.15-.06-.16-.03-.17v-.17Z" fill="#efcb8f" />
      <polygon points="51.71 139.4 51.82 139.6 51.96 139.77 52.13 139.91 52.32 140.02 52.54 140.08 52.77 140.11 53 140.08 53.22 140.02 53.41 139.91 53.58 139.77 53.72 139.6 53.83 139.4 53.9 139.19 53.92 138.96 53.9 138.73 53.83 138.51 53.72 138.31 53.58 138.14 53.41 138 53.22 137.9 53 137.83 52.77 137.81 52.54 137.83 52.32 137.9 52.13 138 51.96 138.14 51.82 138.31 51.71 138.51 51.64 138.73 51.62 138.96 51.64 139.19 51.71 139.4" fill="#efcb8f" />
      <polygon points="74.45 132.06 74.34 132.05 74.23 132.05 74.12 132.06 74.01 132.08 73.9 132.11 73.79 132.15 73.69 132.2 73.6 132.26 73.51 132.33 73.43 132.41 73.35 132.5 73.29 132.59 73.23 132.69 73.19 132.79 73.16 132.9 73.13 133.01 73.12 133.12 73.12 133.24 73.13 133.35 73.15 133.46 73.18 133.57 73.22 133.67 73.27 133.77 73.33 133.87 73.4 133.96 73.48 134.04 73.57 134.11 73.66 134.17 73.76 134.23 73.86 134.27 73.97 134.31 74.01 134.32 74.04 134.33 74.08 134.33 74.12 134.34 74.16 134.34 74.19 134.35 74.23 134.35 74.27 134.35 74.34 134.35 74.42 134.34 74.49 134.33 74.56 134.31 74.63 134.29 74.7 134.26 74.77 134.23 74.84 134.19 74.94 134.13 75.03 134.06 75.11 133.98 75.18 133.9 75.24 133.81 75.3 133.71 75.34 133.6 75.38 133.5 75.4 133.38 75.41 133.27 75.42 133.16 75.41 133.05 75.39 132.94 75.36 132.83 75.31 132.72 75.26 132.62 75.2 132.53 75.13 132.44 75.05 132.36 74.97 132.28 74.87 132.22 74.78 132.17 74.67 132.12 74.56 132.09 74.45 132.06" fill="#efcb8f" />
      <polygon points="75.4 144.53 75.38 144.42 75.34 144.31 75.3 144.21 75.24 144.11 75.18 144.02 75.11 143.93 75.03 143.85 74.94 143.78 74.84 143.72 74.74 143.67 74.63 143.63 74.53 143.6 74.42 143.58 74.3 143.57 74.19 143.57 74.08 143.58 73.97 143.61 73.86 143.64 73.76 143.69 73.66 143.74 73.57 143.8 73.48 143.88 73.4 143.96 73.33 144.05 73.27 144.14 73.22 144.24 73.18 144.35 73.15 144.46 73.13 144.57 73.12 144.68 73.12 144.79 73.13 144.9 73.16 145.02 73.19 145.12 73.23 145.23 73.29 145.33 73.35 145.42 73.43 145.5 73.51 145.58 73.6 145.65 73.69 145.71 73.76 145.75 73.83 145.78 73.9 145.81 73.97 145.83 74.04 145.85 74.12 145.86 74.19 145.86 74.26 145.87 74.41 145.86 74.56 145.83 74.7 145.78 74.83 145.72 74.96 145.64 75.07 145.54 75.17 145.42 75.26 145.29 75.31 145.19 75.36 145.09 75.39 144.98 75.41 144.87 75.42 144.76 75.41 144.64 75.4 144.53" fill="#efcb8f" />
      <polygon points="57.41 129.24 57.44 129.35 57.48 129.45 57.53 129.56 57.6 129.65 57.67 129.74 57.74 129.82 57.83 129.89 57.92 129.96 58.02 130.01 58.12 130.06 58.23 130.09 58.27 130.1 58.31 130.11 58.34 130.12 58.38 130.12 58.42 130.13 58.46 130.13 58.49 130.13 58.53 130.13 58.61 130.13 58.68 130.12 58.75 130.11 58.83 130.09 58.9 130.07 58.97 130.04 59.04 130.01 59.1 129.98 59.29 129.84 59.45 129.67 59.56 129.49 59.64 129.28 59.68 129.06 59.67 128.84 59.62 128.62 59.53 128.41 59.46 128.31 59.39 128.22 59.32 128.14 59.23 128.07 59.14 128 59.04 127.95 58.94 127.9 58.83 127.87 58.72 127.85 58.6 127.83 58.49 127.83 58.38 127.84 58.27 127.86 58.16 127.89 58.06 127.93 57.95 127.98 57.86 128.05 57.77 128.12 57.69 128.2 57.62 128.28 57.55 128.37 57.5 128.47 57.45 128.57 57.42 128.68 57.39 128.8 57.38 128.91 57.38 129.02 57.39 129.13 57.41 129.24" fill="#efcb8f" />
      <polygon points="61.71 162.59 58.48 162.59 58.48 157.28 57.13 157.28 57.13 163.76 61.71 163.76 61.71 162.59" fill="#efcb8f" />
      <polygon points="64.33 162.2 62.93 157.28 61.48 157.28 63.67 163.76 64.95 163.76 67.16 157.28 65.75 157.28 64.33 162.2" fill="#efcb8f" />
      <polygon points="69.32 157.28 67.96 157.28 67.96 163.76 72.55 163.76 72.55 162.59 69.32 162.59 69.32 157.28" fill="#efcb8f" />
      <path d="M104.57,56.69l1.8-1.04,1.8-1.04,1.8-1.04,1.05-.61h2.34c.28,0,.5-.22.5-.5s-.22-.5-.5-.5h-2.57l-.83-.48-1.8-1.04-1.8-1.04-1.8-1.04v3.6h-2.96c-.28,0-.5.22-.5.5s.22.5.5.5h2.96v3.73Z" fill="#efcb8f" />
      <path d="M160.85,16.73h-22.6l-3.34-3.34-3.34-3.34-3.34-3.34-3.34-3.34H46.89l-3.34,3.34-3.34,3.34-3.34,3.34-3.34,3.34H3.4v330.73h164.98V16.73h-7.53ZM167.38,99.91v246.55H4.4V17.73h29.54l3.34-3.34,3.34-3.34,3.34-3.34,3.34-3.34h77.16l3.34,3.34,3.34,3.34,3.34,3.34,3.34,3.34h29.54v82.18Z" fill="#efcb8f" />
      <path d="M33.19,331.18c.41-.72.17-1.64-.55-2.05-.23-.13-.49-.2-.75-.2h0c-.53,0-1.03.29-1.3.75-.2.35-.25.75-.15,1.14.1.39.35.71.7.91.23.13.49.2.75.2.53,0,1.03-.29,1.3-.75ZM31.02,329.93c.19-.32.52-.5.87-.5.17,0,.34.04.5.13.48.28.64.89.37,1.37-.19.32-.52.5-.87.5-.17,0-.34-.04-.5-.13-.48-.28-.64-.89-.37-1.37Z" fill="#efcb8f" />
      <circle cx="64.29" cy="311.72" r="1.5" fill="#efcb8f" />
      <circle cx="21.09" cy="311.72" r="1.5" fill="#efcb8f" />
      <path d="M61.4,302.42c.25,0,.51-.06.75-.2.35-.2.6-.52.7-.91s.05-.79-.15-1.14c-.2-.35-.52-.59-.91-.7-.39-.1-.79-.05-1.14.15-.35.2-.6.52-.7.91-.1.39-.05.79.15,1.14.28.48.78.75,1.3.75Z" fill="#efcb8f" />
      <path d="M24.37,321.07c-.39-.1-.79-.05-1.14.15-.72.41-.96,1.33-.55,2.05.28.48.78.75,1.3.75.25,0,.51-.06.75-.2.35-.2.6-.52.7-.91s.05-.79-.15-1.14-.52-.6-.91-.7Z" fill="#efcb8f" />
      <path d="M52.74,294.31c.24.14.49.2.75.2.52,0,1.02-.27,1.3-.75.41-.72.17-1.64-.55-2.05-.35-.2-.75-.25-1.14-.15-.39.1-.71.35-.91.7-.2.35-.25.75-.15,1.14.1.39.35.71.7.91Z" fill="#efcb8f" />
      <path d="M42.69,291.62c.83,0,1.5-.67,1.5-1.5,0-.83-.67-1.5-1.5-1.5s-1.5.67-1.5,1.5.67,1.5,1.5,1.5Z" fill="#efcb8f" />
      <path d="M31.14,291.72c-.35.2-.59.52-.7.91-.1.39-.05.79.15,1.14.28.48.78.75,1.3.75.25,0,.51-.06.75-.2.71-.42.96-1.33.55-2.05-.42-.72-1.34-.96-2.05-.55Z" fill="#efcb8f" />
      <path d="M52.74,329.13c-.35.2-.6.52-.7.91-.1.39-.05.79.15,1.14.2.35.52.6.91.7.13.03.26.05.39.05.26,0,.52-.07.75-.2.72-.41.96-1.33.55-2.05-.41-.72-1.33-.96-2.05-.55Z" fill="#efcb8f" />
      <path d="M23.23,302.22c.24.14.49.2.75.2.52,0,1.03-.27,1.3-.75.41-.72.17-1.64-.55-2.05-.72-.41-1.64-.17-2.05.55-.2.35-.25.75-.15,1.14.1.39.35.71.7.91Z" fill="#efcb8f" />
      <path d="M62.15,321.22c-.35-.2-.75-.25-1.14-.15-.39.1-.71.35-.91.7-.2.35-.25.75-.15,1.14.1.39.35.71.7.91.24.14.49.2.75.2.52,0,1.02-.27,1.3-.75.41-.72.17-1.64-.55-2.05Z" fill="#efcb8f" />
      <path d="M39.47,248.96c.47,0,.83.14,1.07.42.13.16.25.39.33.7h1.35c-.02-.4-.17-.81-.44-1.21-.5-.71-1.29-1.07-2.36-1.07-.81,0-1.47.27-1.99.8-.6.61-.9,1.48-.9,2.61,0,1.05.26,1.87.79,2.47.53.6,1.25.9,2.17.9.75,0,1.36-.22,1.83-.66.48-.44.77-1.02.89-1.72h-1.34c-.09.33-.2.58-.33.75-.24.31-.6.47-1.06.47s-.83-.18-1.12-.54c-.29-.36-.44-.91-.44-1.63s.14-1.29.42-1.69c.28-.4.66-.6,1.14-.6Z" fill="#efcb8f" />
      <polygon points="48.51 247.92 47.1 247.92 45.68 252.84 44.27 247.92 42.83 247.92 45.02 254.4 46.3 254.4 48.51 247.92" fill="#efcb8f" />
      <path d="M35.07,339.6h1.5c-.07.42-.25.76-.54,1.02-.29.26-.66.39-1.12.39s-.88-.17-1.24-.5-.54-.89-.54-1.69.17-1.38.5-1.77c.34-.39.76-.59,1.29-.59.27,0,.52.05.74.15.4.18.65.48.75.93h1.33c-.07-.62-.36-1.14-.86-1.56-.5-.42-1.16-.63-1.98-.63-.95,0-1.71.32-2.29.95s-.87,1.47-.87,2.52.29,1.85.86,2.45c.55.59,1.25.89,2.11.89.52,0,.96-.11,1.32-.33.21-.13.44-.34.7-.65l.14.81h.9v-3.48h-2.7v1.08Z" fill="#efcb8f" />
      <path d="M40.91,335.52l-2.31,6.48h1.42l.44-1.33h2.39l.43,1.33h1.47l-2.29-6.48h-1.53ZM40.82,339.55l.84-2.55.82,2.55h-1.66Z" fill="#efcb8f" />
      <rect x="45.45" y="335.52" width="1.34" height="6.48" fill="#efcb8f" />
      <polygon points="52.03 340.04 49.46 335.52 48.04 335.52 48.04 342 49.3 342 49.3 337.4 51.94 342 53.29 342 53.29 335.52 52.03 335.52 52.03 340.04" fill="#efcb8f" />
      <path d="M42.18,202.31c-.58.21-.99.76-.99,1.41,0,.83.67,1.5,1.5,1.5s1.5-.67,1.5-1.5c0-.65-.42-1.2-1-1.41v-30.23l-21.59-21.67v-45.68h-1v46.09l21.59,21.67v29.82ZM43.69,203.72c0,.55-.45,1-1,1s-1-.45-1-1,.45-1,1-1,1,.45,1,1Z" fill="#efcb8f" />
      <polygon points="155.33 149.19 155.36 149.3 155.4 149.41 155.45 149.51 155.52 149.61 155.59 149.69 155.66 149.77 155.75 149.85 155.84 149.91 155.94 149.97 156.04 150.01 156.15 150.05 156.19 150.05 156.23 150.06 156.26 150.07 156.3 150.07 156.34 150.08 156.38 150.08 156.41 150.08 156.45 150.08 156.53 150.08 156.6 150.07 156.67 150.06 156.75 150.05 156.82 150.02 156.89 150 156.96 149.97 157.02 149.93 157.21 149.79 157.37 149.63 157.48 149.44 157.56 149.23 157.6 149.01 157.59 148.79 157.54 148.57 157.45 148.36 157.31 148.17 157.14 148.02 156.95 147.9 156.75 147.82 156.53 147.79 156.31 147.79 156.09 147.84 155.87 147.94 155.78 148 155.69 148.07 155.61 148.15 155.54 148.23 155.47 148.33 155.42 148.42 155.37 148.53 155.34 148.64 155.31 148.75 155.3 148.86 155.3 148.97 155.31 149.08 155.33 149.19" fill="#efcb8f" />
      <polygon points="155.42 129.49 155.53 129.67 155.69 129.84 155.87 129.98 155.94 130.01 156.01 130.04 156.08 130.07 156.15 130.09 156.23 130.11 156.3 130.12 156.37 130.13 156.45 130.13 156.49 130.13 156.52 130.13 156.56 130.13 156.6 130.12 156.64 130.12 156.67 130.11 156.71 130.1 156.75 130.09 156.86 130.06 156.96 130.01 157.06 129.96 157.15 129.89 157.24 129.82 157.31 129.74 157.38 129.65 157.45 129.56 157.5 129.45 157.54 129.35 157.57 129.24 157.59 129.13 157.6 129.02 157.6 128.91 157.58 128.8 157.56 128.68 157.53 128.57 157.48 128.47 157.43 128.37 157.36 128.28 157.29 128.2 157.21 128.12 157.12 128.05 157.02 127.98 156.92 127.93 156.82 127.89 156.71 127.86 156.6 127.84 156.49 127.83 156.38 127.83 156.26 127.85 156.15 127.87 156.04 127.9 155.94 127.95 155.84 128 155.75 128.07 155.66 128.14 155.59 128.22 155.52 128.31 155.45 128.41 155.36 128.62 155.31 128.84 155.3 129.06 155.34 129.28 155.42 129.49" fill="#efcb8f" />
      <polygon points="161.57 138 161.4 138.14 161.26 138.31 161.15 138.51 161.08 138.73 161.06 138.96 161.08 139.19 161.15 139.4 161.26 139.6 161.4 139.77 161.57 139.91 161.76 140.02 161.98 140.08 162.21 140.11 162.44 140.08 162.66 140.02 162.85 139.91 163.02 139.77 163.16 139.6 163.27 139.4 163.34 139.19 163.36 138.96 163.34 138.73 163.27 138.51 163.16 138.31 163.02 138.14 162.85 138 162.66 137.9 162.44 137.83 162.21 137.81 161.98 137.83 161.76 137.9 161.57 138" fill="#efcb8f" />
      <polygon points="141.83 144.46 141.8 144.35 141.76 144.24 141.71 144.14 141.65 144.05 141.58 143.96 141.5 143.88 141.41 143.8 141.32 143.74 141.22 143.69 141.12 143.64 141.01 143.61 140.9 143.58 140.79 143.57 140.67 143.57 140.56 143.58 140.45 143.6 140.34 143.63 140.24 143.67 140.14 143.72 140.04 143.78 139.95 143.85 139.87 143.93 139.8 144.02 139.74 144.11 139.68 144.21 139.64 144.31 139.6 144.42 139.58 144.53 139.56 144.64 139.56 144.76 139.57 144.87 139.59 144.98 139.62 145.09 139.66 145.19 139.72 145.29 139.8 145.42 139.91 145.54 140.02 145.64 140.15 145.72 140.28 145.78 140.42 145.83 140.57 145.86 140.71 145.87 140.79 145.86 140.86 145.86 140.93 145.85 141.01 145.83 141.08 145.81 141.15 145.78 141.22 145.75 141.29 145.71 141.38 145.65 141.47 145.58 141.55 145.5 141.63 145.42 141.69 145.33 141.74 145.23 141.79 145.12 141.82 145.02 141.85 144.9 141.86 144.79 141.86 144.68 141.85 144.57 141.83 144.46" fill="#efcb8f" />
      <polygon points="141.85 133.01 141.82 132.9 141.79 132.79 141.74 132.69 141.69 132.59 141.63 132.5 141.55 132.41 141.47 132.33 141.38 132.26 141.29 132.2 141.19 132.15 141.08 132.11 140.97 132.08 140.86 132.06 140.75 132.05 140.64 132.05 140.53 132.06 140.42 132.09 140.31 132.12 140.2 132.17 140.1 132.22 140.01 132.28 139.93 132.36 139.85 132.44 139.78 132.53 139.72 132.62 139.66 132.72 139.62 132.83 139.59 132.94 139.57 133.05 139.56 133.16 139.56 133.27 139.58 133.38 139.6 133.5 139.64 133.6 139.68 133.71 139.74 133.81 139.8 133.9 139.87 133.98 139.95 134.06 140.04 134.13 140.14 134.19 140.21 134.23 140.27 134.26 140.34 134.29 140.42 134.31 140.49 134.33 140.56 134.34 140.64 134.35 140.71 134.35 140.75 134.35 140.79 134.35 140.82 134.34 140.86 134.34 140.9 134.33 140.94 134.33 140.97 134.32 141.01 134.31 141.12 134.27 141.22 134.23 141.32 134.17 141.41 134.11 141.5 134.04 141.58 133.96 141.65 133.87 141.71 133.77 141.76 133.67 141.8 133.57 141.83 133.46 141.85 133.35 141.86 133.24 141.86 133.12 141.85 133.01" fill="#efcb8f" />
      <path d="M145.95,147.98l-.1-.09-.11-.09-.12-.08-.08-.04-.08-.04-.09-.03-.09-.03-.09-.02h-.09s-.09-.02-.09-.02h-.09s-.19,0-.19,0l-.18.04-.17.06-.16.08-.15.1-.14.12-.12.14-.1.15-.06.12-.05.13-.04.13-.02.13v.14s0,.14,0,.14l.02.14.03.14.04.13.05.13.07.12.08.11.09.1.1.1.11.09.12.08.08.04.08.04.09.03.09.03.09.02h.09s.09.02.09.02h.09s.19,0,.19,0l.18-.04.17-.06.16-.08.15-.1.14-.12.12-.14.1-.15.06-.12.05-.13.04-.13.02-.13v-.14s0-.14,0-.14l-.02-.14-.03-.14-.04-.13-.05-.13-.07-.12-.08-.11-.09-.1ZM145.82,149.05l-.04.17-.07.17-.07.1-.08.09-.09.08-.1.06-.1.05-.11.04-.11.02h-.12s-.06,0-.06,0h-.06s-.06-.01-.06-.01h-.06s-.06-.03-.06-.03l-.06-.02-.05-.02-.05-.03-.15-.11-.12-.13-.09-.15-.06-.16-.03-.17v-.17s.04-.17.04-.17l.07-.17.07-.1.08-.09.09-.08.1-.06.1-.05.11-.04.11-.02h.12s.06,0,.06,0h.06s.06.01.06.01h.06s.06.03.06.03l.06.02.05.02.05.03.15.11.12.13.09.15.06.16.03.17v.17Z" fill="#efcb8f" />
      <polygon points="138.11 139.4 138.22 139.6 138.36 139.77 138.53 139.91 138.72 140.02 138.94 140.08 139.17 140.11 139.4 140.08 139.62 140.02 139.81 139.91 139.98 139.77 140.12 139.6 140.23 139.4 140.3 139.19 140.32 138.96 140.3 138.73 140.23 138.51 140.12 138.31 139.98 138.14 139.81 138 139.62 137.9 139.4 137.83 139.17 137.81 138.94 137.83 138.72 137.9 138.53 138 138.36 138.14 138.22 138.31 138.11 138.51 138.04 138.73 138.02 138.96 138.04 139.19 138.11 139.4" fill="#efcb8f" />
      <polygon points="159.83 132.41 159.75 132.5 159.69 132.59 159.64 132.69 159.59 132.79 159.56 132.9 159.53 133.01 159.52 133.12 159.52 133.24 159.53 133.35 159.55 133.46 159.58 133.57 159.62 133.67 159.67 133.77 159.73 133.87 159.8 133.96 159.88 134.04 159.97 134.11 160.06 134.17 160.16 134.23 160.26 134.27 160.37 134.31 160.41 134.32 160.44 134.33 160.48 134.33 160.52 134.34 160.56 134.34 160.59 134.35 160.63 134.35 160.67 134.35 160.74 134.35 160.82 134.34 160.89 134.33 160.96 134.31 161.03 134.29 161.1 134.26 161.17 134.23 161.24 134.19 161.34 134.13 161.43 134.06 161.51 133.98 161.58 133.9 161.64 133.81 161.7 133.71 161.74 133.6 161.78 133.5 161.8 133.38 161.81 133.27 161.82 133.16 161.81 133.05 161.79 132.94 161.76 132.83 161.71 132.72 161.66 132.62 161.6 132.53 161.53 132.44 161.45 132.36 161.37 132.28 161.27 132.22 161.18 132.17 161.07 132.12 160.96 132.09 160.85 132.06 160.74 132.05 160.63 132.05 160.52 132.06 160.41 132.08 160.3 132.11 160.19 132.15 160.09 132.2 160 132.26 159.91 132.33 159.83 132.41" fill="#efcb8f" />
      <polygon points="161.8 144.53 161.78 144.42 161.74 144.31 161.7 144.21 161.64 144.11 161.58 144.02 161.51 143.93 161.43 143.85 161.34 143.78 161.24 143.72 161.14 143.67 161.03 143.63 160.93 143.6 160.82 143.58 160.7 143.57 160.59 143.57 160.48 143.58 160.37 143.61 160.26 143.64 160.16 143.69 160.06 143.74 159.97 143.8 159.88 143.88 159.8 143.96 159.73 144.05 159.67 144.14 159.62 144.24 159.58 144.35 159.55 144.46 159.53 144.57 159.52 144.68 159.52 144.79 159.53 144.9 159.56 145.02 159.59 145.12 159.64 145.23 159.69 145.33 159.75 145.42 159.83 145.5 159.91 145.58 160 145.65 160.09 145.71 160.16 145.75 160.23 145.78 160.3 145.81 160.37 145.83 160.44 145.85 160.52 145.86 160.59 145.86 160.66 145.87 160.81 145.86 160.96 145.83 161.1 145.78 161.23 145.72 161.36 145.64 161.47 145.54 161.57 145.42 161.66 145.29 161.71 145.19 161.76 145.09 161.79 144.98 161.81 144.87 161.82 144.76 161.81 144.64 161.8 144.53" fill="#efcb8f" />
      <polygon points="145.12 127.85 145 127.83 144.89 127.83 144.78 127.84 144.67 127.86 144.56 127.89 144.46 127.93 144.35 127.98 144.26 128.05 144.17 128.12 144.09 128.2 144.02 128.28 143.95 128.37 143.9 128.47 143.85 128.57 143.82 128.68 143.79 128.8 143.78 128.91 143.78 129.02 143.79 129.13 143.81 129.24 143.84 129.35 143.88 129.45 143.93 129.56 144 129.65 144.07 129.74 144.14 129.82 144.23 129.89 144.32 129.96 144.42 130.01 144.52 130.06 144.63 130.09 144.67 130.1 144.71 130.11 144.74 130.12 144.78 130.12 144.82 130.13 144.86 130.13 144.89 130.13 144.93 130.13 145.01 130.13 145.08 130.12 145.15 130.11 145.23 130.09 145.3 130.07 145.37 130.04 145.44 130.01 145.5 129.98 145.69 129.84 145.85 129.67 145.96 129.49 146.04 129.28 146.08 129.06 146.07 128.84 146.02 128.62 145.93 128.41 145.86 128.31 145.79 128.22 145.72 128.14 145.63 128.07 145.54 128 145.44 127.95 145.34 127.9 145.23 127.87 145.12 127.85" fill="#efcb8f" />
      <polygon points="148.11 162.59 144.88 162.59 144.88 157.28 143.53 157.28 143.53 163.76 148.11 163.76 148.11 162.59" fill="#efcb8f" />
      <polygon points="150.73 162.2 149.33 157.28 147.88 157.28 150.07 163.76 151.35 163.76 153.56 157.28 152.15 157.28 150.73 162.2" fill="#efcb8f" />
      <polygon points="155.72 157.28 154.36 157.28 154.36 163.76 158.95 163.76 158.95 162.59 155.72 162.59 155.72 157.28" fill="#efcb8f" />
      <path d="M119.42,331.18c.41-.72.17-1.64-.55-2.05-.23-.13-.49-.2-.75-.2h0c-.53,0-1.03.29-1.3.75-.2.35-.25.75-.15,1.14.1.39.35.71.7.91.23.13.49.2.75.2.53,0,1.03-.29,1.3-.75ZM118.99,330.93c-.19.32-.52.5-.87.5-.17,0-.34-.04-.5-.13-.48-.28-.64-.89-.37-1.37.19-.32.52-.5.87-.5.17,0,.34.04.5.13.48.28.64.89.37,1.37Z" fill="#efcb8f" />
      <circle cx="150.52" cy="311.72" r="1.5" fill="#efcb8f" />
      <circle cx="107.32" cy="311.72" r="1.5" fill="#efcb8f" />
      <path d="M148.01,299.47c-.39-.1-.79-.05-1.14.15-.35.2-.6.52-.7.91-.1.39-.05.79.15,1.14.28.48.78.75,1.3.75.25,0,.51-.06.75-.2.35-.2.6-.52.7-.91s.05-.79-.15-1.14c-.2-.35-.52-.59-.91-.7Z" fill="#efcb8f" />
      <path d="M110.6,321.07c-.39-.1-.79-.05-1.14.15-.72.41-.96,1.33-.55,2.05.28.48.78.75,1.3.75.25,0,.51-.06.75-.2.35-.2.6-.52.7-.91s.05-.79-.15-1.14-.52-.6-.91-.7Z" fill="#efcb8f" />
      <path d="M138.97,294.31c.24.14.49.2.75.2.52,0,1.02-.27,1.3-.75.41-.72.17-1.64-.55-2.05-.35-.2-.75-.25-1.14-.15-.39.1-.71.35-.91.7-.2.35-.25.75-.15,1.14.1.39.35.71.7.91Z" fill="#efcb8f" />
      <path d="M128.92,291.62c.83,0,1.5-.67,1.5-1.5,0-.83-.67-1.5-1.5-1.5s-1.5.67-1.5,1.5.67,1.5,1.5,1.5Z" fill="#efcb8f" />
      <path d="M117.37,291.72c-.35.2-.59.52-.7.91-.1.39-.05.79.15,1.14.28.48.78.75,1.3.75.25,0,.51-.06.75-.2.71-.42.96-1.33.55-2.05-.42-.72-1.34-.96-2.05-.55Z" fill="#efcb8f" />
      <path d="M138.97,329.13c-.35.2-.6.52-.7.91-.1.39-.05.79.15,1.14.2.35.52.6.91.7.13.03.26.05.39.05.26,0,.52-.07.75-.2.72-.41.96-1.33.55-2.05-.41-.72-1.33-.96-2.05-.55Z" fill="#efcb8f" />
      <path d="M109.46,302.22c.24.14.49.2.75.2.52,0,1.03-.27,1.3-.75.41-.72.17-1.64-.55-2.05-.72-.41-1.64-.17-2.05.55-.2.35-.25.75-.15,1.14.1.39.35.71.7.91Z" fill="#efcb8f" />
      <path d="M148.37,321.22c-.35-.2-.75-.25-1.14-.15-.39.1-.71.35-.91.7-.2.35-.25.75-.15,1.14.1.39.35.71.7.91.24.14.49.2.75.2.52,0,1.02-.27,1.3-.75.41-.72.17-1.64-.55-2.05Z" fill="#efcb8f" />
      <path d="M125.87,248.96c.47,0,.83.14,1.07.42.13.16.25.39.33.7h1.35c-.02-.4-.17-.81-.44-1.21-.5-.71-1.29-1.07-2.36-1.07-.81,0-1.47.27-1.99.8-.6.61-.9,1.48-.9,2.61,0,1.05.26,1.87.79,2.47.53.6,1.25.9,2.17.9.75,0,1.36-.22,1.83-.66.48-.44.77-1.02.89-1.72h-1.34c-.09.33-.2.58-.33.75-.24.31-.6.47-1.06.47s-.83-.18-1.12-.54c-.29-.36-.44-.91-.44-1.63s.14-1.29.42-1.69c.28-.4.66-.6,1.14-.6Z" fill="#efcb8f" />
      <polygon points="134.91 247.92 133.5 247.92 132.08 252.84 130.67 247.92 129.23 247.92 131.42 254.4 132.7 254.4 134.91 247.92" fill="#efcb8f" />
      <path d="M121.47,339.6h1.5c-.07.42-.25.76-.54,1.02-.29.26-.66.39-1.12.39s-.88-.17-1.24-.5-.54-.89-.54-1.69.17-1.38.5-1.77c.34-.39.76-.59,1.29-.59.27,0,.52.05.74.15.4.18.65.48.75.93h1.33c-.07-.62-.36-1.14-.86-1.56-.5-.42-1.16-.63-1.98-.63-.95,0-1.71.32-2.29.95s-.87,1.47-.87,2.52.29,1.85.86,2.45c.55.59,1.25.89,2.11.89.52,0,.96-.11,1.32-.33.21-.13.44-.34.7-.65l.14.81h.9v-3.48h-2.7v1.08Z" fill="#efcb8f" />
      <path d="M127.31,335.52l-2.31,6.48h1.42l.44-1.33h2.39l.43,1.33h1.47l-2.29-6.48h-1.53ZM127.22,339.55l.84-2.55.82,2.55h-1.66Z" fill="#efcb8f" />
      <rect x="131.85" y="335.52" width="1.34" height="6.48" fill="#efcb8f" />
      <polygon points="138.43 340.04 135.86 335.52 134.44 335.52 134.44 342 135.7 342 135.7 337.4 138.34 342 139.69 342 139.69 335.52 138.43 335.52 138.43 340.04" fill="#efcb8f" />
      <polygon points="120.77 195.71 120.29 195.71 120.29 195.94 120.29 196.17 120.29 196.4 120.29 196.63 120.77 196.63 121.25 196.63 121.72 196.63 122.2 196.63 122.2 196.4 122.2 196.17 122.2 195.94 122.2 195.71 121.72 195.71 121.25 195.71 120.77 195.71" fill="#efcb8f" />
      <polygon points="136.83 195.82 136.48 195.82 136.48 195.47 136.48 195.12 136.48 194.77 136.48 194.42 136.25 194.42 136.03 194.42 135.8 194.42 135.58 194.42 135.58 194.77 135.58 195.12 135.58 195.47 135.58 195.82 135.23 195.82 134.88 195.82 134.53 195.82 134.18 195.82 134.18 196.04 134.18 196.26 134.18 196.49 134.18 196.71 134.53 196.71 134.88 196.71 135.23 196.71 135.58 196.71 135.58 197.06 135.58 197.41 135.58 197.77 135.58 198.12 135.8 198.12 136.03 198.12 136.25 198.12 136.48 198.12 136.48 197.77 136.48 197.41 136.48 197.06 136.48 196.71 136.83 196.71 137.18 196.71 137.53 196.71 137.88 196.71 137.88 196.49 137.88 196.26 137.88 196.04 137.88 195.82 137.53 195.82 137.18 195.82 136.83 195.82" fill="#efcb8f" />
      <polygon points="34.37 195.71 33.89 195.71 33.89 195.94 33.89 196.17 33.89 196.4 33.89 196.63 34.37 196.63 34.85 196.63 35.32 196.63 35.8 196.63 35.8 196.4 35.8 196.17 35.8 195.94 35.8 195.71 35.32 195.71 34.85 195.71 34.37 195.71" fill="#efcb8f" />
      <polygon points="48.48 196.71 48.83 196.71 49.18 196.71 49.18 197.06 49.18 197.41 49.18 197.77 49.18 198.12 49.4 198.12 49.63 198.12 49.85 198.12 50.08 198.12 50.08 197.77 50.08 197.41 50.08 197.06 50.08 196.71 50.43 196.71 50.78 196.71 51.13 196.71 51.48 196.71 51.48 196.49 51.48 196.26 51.48 196.04 51.48 195.82 51.13 195.82 50.78 195.82 50.43 195.82 50.08 195.82 50.08 195.47 50.08 195.12 50.08 194.77 50.08 194.42 49.85 194.42 49.63 194.42 49.4 194.42 49.18 194.42 49.18 194.77 49.18 195.12 49.18 195.47 49.18 195.82 48.83 195.82 48.48 195.82 48.13 195.82 47.78 195.82 47.78 196.04 47.78 196.26 47.78 196.49 47.78 196.71 48.13 196.71 48.48 196.71" fill="#efcb8f" />
      <path d="M107.99,104.73h-1v46.09l21.59,21.67v29.82c-.58.21-.99.76-.99,1.41,0,.83.67,1.5,1.5,1.5s1.5-.67,1.5-1.5c0-.65-.42-1.2-1-1.41v-30.23l-21.59-21.67v-45.68ZM130.09,203.72c0,.55-.45,1-1,1s-1-.45-1-1,.45-1,1-1,1,.45,1,1Z" fill="#efcb8f" />
      <polygon points="151.19 104.73 150.19 104.73 150.19 126.41 150.05 126.48 149.88 126.62 149.74 126.8 149.63 126.99 149.56 127.21 149.54 127.44 149.56 127.67 149.63 127.88 149.74 128.08 149.88 128.25 150.05 128.39 150.24 128.5 150.46 128.56 150.69 128.59 150.92 128.56 151.14 128.5 151.33 128.39 151.5 128.25 151.64 128.08 151.75 127.88 151.82 127.67 151.84 127.44 151.82 127.21 151.75 126.99 151.64 126.8 151.5 126.62 151.33 126.48 151.19 126.41 151.19 104.73" fill="#efcb8f" />
      <path d="M64.29,52.95h2c.28,0,.5-.22.5-.5s-.22-.5-.5-.5h-2c-.28,0-.5.22-.5.5s.22.5.5.5Z" fill="#efcb8f" />
      <path d="M89.83,51.95h-3.92c-.28,0-.5.22-.5.5s.22.5.5.5h3.92c.28,0,.5-.22.5-.5s-.22-.5-.5-.5Z" fill="#efcb8f" />
      <path d="M97.68,51.95h-3.92c-.28,0-.5.22-.5.5s.22.5.5.5h3.92c.28,0,.5-.22.5-.5s-.22-.5-.5-.5Z" fill="#efcb8f" />
      <path d="M81.98,51.95h-3.92c-.28,0-.5.22-.5.5s.22.5.5.5h3.92c.28,0,.5-.22.5-.5s-.22-.5-.5-.5Z" fill="#efcb8f" />
      <path d="M140.84,52.95h3.92c.28,0,.5-.22.5-.5s-.22-.5-.5-.5h-3.92c-.28,0-.5.22-.5.5s.22.5.5.5Z" fill="#efcb8f" />
      <path d="M70.21,52.95h3.92c.28,0,.5-.22.5-.5s-.22-.5-.5-.5h-3.92c-.28,0-.5.22-.5.5s.22.5.5.5Z" fill="#efcb8f" />
      <path d="M125.15,52.95h3.92c.28,0,.5-.22.5-.5s-.22-.5-.5-.5h-3.92c-.28,0-.5.22-.5.5s.22.5.5.5Z" fill="#efcb8f" />
      <path d="M117.3,52.95h3.92c.28,0,.5-.22.5-.5s-.22-.5-.5-.5h-3.92c-.28,0-.5.22-.5.5s.22.5.5.5Z" fill="#efcb8f" />
      <path d="M132.99,52.95h3.92c.28,0,.5-.22.5-.5s-.22-.5-.5-.5h-3.92c-.28,0-.5.22-.5.5s.22.5.5.5Z" fill="#efcb8f" />
      <path d="M148.69,52.95h2c.28,0,.5-.22.5-.5s-.22-.5-.5-.5h-2c-.28,0-.5.22-.5.5s.22.5.5.5Z" fill="#efcb8f" />
      <path d="M66.62,351.94c-1.03,0-1.81.28-2.36.84-.73.66-1.09,1.65-1.09,2.97s.36,2.28,1.09,2.97c.54.56,1.33.84,2.36.84s1.81-.28,2.36-.84c.73-.69,1.09-1.68,1.09-2.97s-.36-2.31-1.09-2.97c-.54-.56-1.33-.84-2.36-.84ZM68.04,357.62c-.35.44-.82.66-1.42.66s-1.07-.22-1.43-.66-.53-1.06-.53-1.88.18-1.44.53-1.88.83-.66,1.43-.66,1.07.22,1.42.66c.35.44.53,1.06.53,1.87s-.17,1.44-.53,1.88Z" fill="#efcb8f" />
      <polygon points="76.45 352.16 70.62 352.16 70.62 353.43 72.78 353.43 72.78 359.36 74.29 359.36 74.29 353.43 76.45 353.43 76.45 352.16" fill="#efcb8f" />
      <path d="M78.65,352.16l-2.57,7.2h1.57l.49-1.48h2.65l.48,1.48h1.63l-2.55-7.2h-1.7ZM78.55,356.64l.93-2.83.91,2.83h-1.84Z" fill="#efcb8f" />
      <polygon points="85.71 357.62 84.14 352.16 82.54 352.16 84.97 359.36 86.39 359.36 88.85 352.16 87.28 352.16 85.71 357.62" fill="#efcb8f" />
      <path d="M92.7,353.31c.53,0,.92.16,1.19.47.15.18.27.44.37.78h1.5c-.02-.45-.19-.9-.49-1.34-.55-.79-1.43-1.19-2.63-1.19-.9,0-1.63.3-2.21.89-.67.68-1,1.65-1,2.91,0,1.16.29,2.08.88,2.74.59.66,1.39,1,2.42,1,.83,0,1.51-.25,2.04-.74.53-.49.86-1.13.99-1.91h-1.49c-.1.37-.22.65-.37.83-.27.34-.66.52-1.18.52s-.92-.2-1.24-.6c-.33-.4-.49-1.01-.49-1.81s.15-1.43.46-1.87c.31-.44.73-.66,1.27-.66Z" fill="#efcb8f" />
      <path d="M99.02,352.16l-2.57,7.2h1.57l.49-1.48h2.65l.48,1.48h1.63l-2.55-7.2h-1.7ZM98.92,356.64l.93-2.83.91,2.83h-1.84Z" fill="#efcb8f" />
      <path d="M106.95,356.15c-.83-.18-1.32-.31-1.45-.39-.14-.07-.21-.19-.21-.35,0-.13.06-.24.19-.33s.34-.14.65-.14c.37,0,.63.09.78.28.08.1.13.25.15.42h1.39c-.06-.65-.3-1.11-.72-1.38-.42-.26-.96-.4-1.63-.4-.7,0-1.25.18-1.63.53-.39.35-.58.78-.58,1.27,0,.42.12.74.37.96.25.22.67.41,1.28.56.84.2,1.33.34,1.46.42.13.08.2.2.2.36s-.08.29-.24.37c-.16.08-.38.12-.65.12-.47,0-.79-.09-.96-.28-.1-.1-.16-.28-.19-.53h-1.41c0,.55.2,1,.6,1.35.4.35,1.02.53,1.86.53s1.43-.17,1.82-.5c.39-.33.59-.76.59-1.29,0-.4-.14-.73-.41-1-.28-.26-.69-.46-1.25-.59Z" fill="#efcb8f" />
      <path d="M150.69,223.82c-.83,0-1.5.67-1.5,1.5s.67,1.5,1.5,1.5,1.5-.67,1.5-1.5-.67-1.5-1.5-1.5Z" fill="#efcb8f" />
      <path d="M105.99,225.32c0,.83.67,1.5,1.5,1.5s1.5-.67,1.5-1.5-.67-1.5-1.5-1.5-1.5.67-1.5,1.5ZM107.49,224.32c.55,0,1,.45,1,1s-.45,1-1,1-1-.45-1-1,.45-1,1-1Z" fill="#efcb8f" />
      <path d="M149.09,213.77c-.41-.72-1.33-.96-2.05-.55-.72.41-.96,1.33-.55,2.05.41.72,1.33.96,2.05.55.72-.41.96-1.33.55-2.05Z" fill="#efcb8f" />
      <path d="M110.38,234.62c-.25,0-.51.06-.75.2-.72.41-.96,1.33-.55,2.05.28.48.78.75,1.3.75.25,0,.51-.06.75-.2.72-.41.96-1.33.55-2.05-.28-.48-.78-.75-1.3-.75ZM110.88,236.99c-.15.09-.32.13-.5.13-.36,0-.69-.19-.87-.5-.13-.23-.17-.5-.1-.76s.23-.47.47-.61c.15-.09.32-.13.5-.13.36,0,.69.19.87.5.28.48.11,1.09-.37,1.37Z" fill="#efcb8f" />
      <path d="M140.64,205.32c-.72-.41-1.63-.17-2.05.55-.41.72-.17,1.63.55,2.05.72.41,1.63.17,2.05-.55.41-.72.17-1.63-.55-2.05Z" fill="#efcb8f" />
      <path d="M119.04,242.73c-.24-.14-.49-.2-.75-.2-.52,0-1.02.27-1.3.75-.41.72-.17,1.63.55,2.05.24.14.49.2.75.2.52,0,1.02-.27,1.3-.75.41-.72.17-1.63-.55-2.05ZM119.15,244.53c-.18.31-.51.5-.87.5-.17,0-.35-.05-.5-.13-.23-.13-.4-.35-.47-.61-.07-.26-.03-.53.1-.76.18-.31.51-.5.87-.5.17,0,.35.05.5.13.48.28.64.89.37,1.37Z" fill="#efcb8f" />
      <path d="M119.59,205.86c-.28-.48-.78-.75-1.3-.75-.25,0-.51.06-.75.2-.72.41-.96,1.33-.55,2.05.28.48.78.75,1.3.75.25,0,.51-.06.75-.2.72-.41.96-1.33.55-2.05ZM119.25,206.87c-.07.26-.23.47-.47.61-.15.09-.32.13-.5.13-.36,0-.69-.19-.87-.5-.13-.23-.17-.5-.1-.76.07-.26.23-.47.47-.61.15-.09.32-.13.5-.13.36,0,.69.19.87.5.13.23.17.5.1.76Z" fill="#efcb8f" />
      <path d="M139.14,242.73c-.72.41-.96,1.33-.55,2.05s1.33.96,2.05.55c.72-.41.96-1.33.55-2.05-.41-.72-1.33-.96-2.05-.55Z" fill="#efcb8f" />
      <path d="M111.13,213.22c-.24-.14-.49-.2-.75-.2-.52,0-1.02.27-1.3.75-.41.72-.17,1.63.55,2.05.24.14.49.2.75.2.52,0,1.02-.27,1.3-.75.41-.72.17-1.63-.55-2.05ZM111.25,215.02c-.18.31-.51.5-.87.5-.17,0-.35-.05-.5-.13-.23-.13-.4-.35-.47-.61-.07-.26-.03-.53.1-.76.18-.31.51-.5.87-.5.17,0,.35.05.5.13.48.28.64.89.37,1.37Z" fill="#efcb8f" />
      <path d="M148.54,234.82c-.72-.41-1.63-.17-2.05.55-.41.72-.17,1.63.55,2.05.72.41,1.63.17,2.05-.55.41-.72.17-1.63-.55-2.05Z" fill="#efcb8f" />
      <path d="M64.29,226.82c.83,0,1.5-.67,1.5-1.5s-.67-1.5-1.5-1.5-1.5.67-1.5,1.5.67,1.5,1.5,1.5Z" fill="#efcb8f" />
      <path d="M21.09,226.82c.83,0,1.5-.67,1.5-1.5s-.67-1.5-1.5-1.5-1.5.67-1.5,1.5.67,1.5,1.5,1.5ZM21.09,224.32c.55,0,1,.45,1,1s-.45,1-1,1-1-.45-1-1,.45-1,1-1Z" fill="#efcb8f" />
      <path d="M60.64,213.22c-.72.41-.96,1.33-.55,2.05.41.72,1.33.96,2.05.55.72-.41.96-1.33.55-2.05s-1.33-.96-2.05-.55Z" fill="#efcb8f" />
      <path d="M22.68,236.87c.28.48.78.75,1.3.75.25,0,.51-.06.75-.2.72-.41.96-1.33.55-2.05-.28-.48-.78-.75-1.3-.75-.25,0-.51.06-.75.2-.72.41-.96,1.33-.55,2.05ZM23.02,235.86c.07-.26.23-.47.47-.61.15-.09.32-.13.5-.13.36,0,.69.19.87.5.13.23.17.5.1.76-.07.26-.23.47-.47.61-.15.09-.32.13-.5.13-.36,0-.69-.19-.87-.5-.13-.23-.17-.5-.1-.76Z" fill="#efcb8f" />
      <path d="M54.24,205.32c-.72-.41-1.63-.17-2.05.55-.41.72-.17,1.63.55,2.05.72.41,1.63.17,2.05-.55.41-.72.17-1.63-.55-2.05Z" fill="#efcb8f" />
      <path d="M31.14,245.32c.24.14.49.2.75.2.52,0,1.02-.27,1.3-.75.41-.72.17-1.63-.55-2.05-.24-.14-.49-.2-.75-.2-.52,0-1.02.27-1.3.75-.41.72-.17,1.63.55,2.05ZM31.02,243.53c.18-.31.51-.5.87-.5.17,0,.35.05.5.13.48.28.64.89.37,1.37-.18.31-.51.5-.87.5-.17,0-.35-.05-.5-.13-.23-.13-.4-.35-.47-.61-.07-.26-.03-.53.1-.76Z" fill="#efcb8f" />
      <path d="M31.89,205.11c-.25,0-.51.06-.75.2-.72.41-.96,1.33-.55,2.05.28.48.78.75,1.3.75.25,0,.51-.06.75-.2.72-.41.96-1.33.55-2.05-.28-.48-.78-.75-1.3-.75ZM32.39,207.48c-.15.09-.32.13-.5.13-.36,0-.69-.19-.87-.5-.13-.23-.17-.5-.1-.76.07-.26.23-.47.47-.61.15-.09.32-.13.5-.13.36,0,.69.19.87.5.28.48.11,1.09-.37,1.37Z" fill="#efcb8f" />
      <path d="M54.24,245.32c.72-.41.96-1.33.55-2.05-.41-.72-1.33-.96-2.05-.55s-.96,1.33-.55,2.05c.41.72,1.33.96,2.05.55Z" fill="#efcb8f" />
      <path d="M23.98,216.02c.52,0,1.02-.27,1.3-.75.41-.72.17-1.63-.55-2.05-.24-.14-.49-.2-.75-.2-.52,0-1.02.27-1.3.75-.41.72-.17,1.63.55,2.05.24.14.49.2.75.2ZM23.02,214.78c-.07-.26-.03-.53.1-.76.18-.31.51-.5.87-.5.17,0,.35.05.5.13.48.28.64.89.37,1.37-.18.31-.51.5-.87.5-.17,0-.35-.05-.5-.13-.23-.13-.4-.35-.47-.61Z" fill="#efcb8f" />
      <path d="M60.64,237.42c.72.41,1.63.17,2.05-.55.41-.72.17-1.63-.55-2.05-.72-.41-1.63-.17-2.05.55-.41.72-.17,1.63.55,2.05Z" fill="#efcb8f" />
    </g>
  </g>
  <g id="Elements">
    <g>
      <path d="M155.08,74.12c0,2.43-1.97,4.39-4.39,4.39s-4.39-1.97-4.39-4.39,1.97-4.39,4.39-4.39,4.39,1.97,4.39,4.39Z" fill="#802619" />
      <path d="M154.52,74.14c0,2.13-1.72,3.86-3.83,3.86s-3.83-1.73-3.83-3.86,1.72-3.86,3.83-3.86,3.83,1.73,3.83,3.86Z" fill="#c24330" />
      <path d="M154.32,72.87c0,.88-.74,1.59-1.66,1.59s-1.66-.71-1.66-1.59.74-1.59,1.66-1.59,1.66.71,1.66,1.59Z" fill="#f4a298" />
    </g>
    <g>
      <path d="M68.68,74.12c0,2.43-1.97,4.39-4.39,4.39s-4.39-1.97-4.39-4.39,1.97-4.39,4.39-4.39,4.39,1.97,4.39,4.39Z" fill="#802619" />
      <path d="M68.12,74.14c0,2.13-1.72,3.86-3.83,3.86s-3.83-1.73-3.83-3.86,1.72-3.86,3.83-3.86,3.83,1.73,3.83,3.86Z" fill="#c24330" />
      <path d="M67.92,72.87c0,.88-.74,1.59-1.66,1.59s-1.66-.71-1.66-1.59.74-1.59,1.66-1.59,1.66.71,1.66,1.59Z" fill="#f4a298" />
    </g>
    </g>
</svg>