<?xml version="1.0" encoding="UTF-8"?>
<svg xmlns="http://www.w3.org/2000/svg" width="30.2mm" height="128.5mm" viewBox="0 0 85.61 364.25">
  <g id="Panel">
    <rect x="-.11" y="0" width="85.82" height="364.25" fill="#1e1e1e"/>
  </g>
  <g id="Graphics">
    <path d="M54.2,225.26c0-.63-.51-1.15-1.15-1.15s-1.15.51-1.15,1.15.51,1.15,1.15,1.15,1.15-.51,1.15-1.15Z" fill="#efcb8f"/>
    <path d="M76.09,224.11c-.63,0-1.15.51-1.15,1.15s.51,1.15,1.15,1.15,1.15-.51,1.15-1.15-.51-1.15-1.15-1.15Z" fill="#efcb8f"/>
    <path d="M54.02,230.03c-.55.32-.74,1.02-.42,1.57s1.02.74,1.57.42c.55-.32.74-1.02.42-1.57-.32-.55-1.02-.74-1.57-.42Z" fill="#efcb8f"/>
    <path d="M75.12,220.5c.55-.32.74-1.02.42-1.57-.32-.55-1.02-.74-1.57-.42-.55.32-.74,1.02-.42,1.57s1.02.74,1.57.42Z" fill="#efcb8f"/>
    <path d="M58.24,236.23c.18.1.38.15.57.15.4,0,.78-.21,1-.57.32-.55.13-1.25-.42-1.57-.18-.1-.38-.15-.57-.15-.4,0-.78.21-1,.57-.32.55-.13,1.25.42,1.57ZM58.12,234.84c.14-.25.41-.4.69-.4.14,0,.28.04.4.11.38.22.51.71.29,1.09-.14.25-.41.4-.69.4-.14,0-.28-.04-.4-.11-.38-.22-.51-.71-.29-1.09Z" fill="#efcb8f"/>
    <path d="M70.91,214.29c-.55-.32-1.25-.13-1.57.42-.32.55-.13,1.25.42,1.57.55.32,1.25.13,1.57-.42s.13-1.25-.42-1.57Z" fill="#efcb8f"/>
    <path d="M65.72,213.74c0-.63-.51-1.15-1.15-1.15s-1.15.51-1.15,1.15.51,1.15,1.15,1.15,1.15-.51,1.15-1.15Z" fill="#efcb8f"/>
    <path d="M70.91,236.23c.55-.32.74-1.02.42-1.57-.32-.55-1.02-.74-1.57-.42-.55.32-.74,1.02-.42,1.57.32.55,1.02.74,1.57.42Z" fill="#efcb8f"/>
    <path d="M57.82,215.86c.32.55,1.02.74,1.57.42s.74-1.02.42-1.57c-.32-.55-1.02-.74-1.57-.42-.55.32-.74,1.02-.42,1.57Z" fill="#efcb8f"/>
    <path d="M75.54,231.6c.32-.55.13-1.25-.42-1.57s-1.25-.13-1.57.42c-.32.55-.13,1.25.42,1.57.55.32,1.25.13,1.57-.42Z" fill="#efcb8f"/>
    <path d="M55.17,218.51c-.55-.32-1.25-.13-1.57.42-.32.55-.13,1.25.42,1.57.55.32,1.25.13,1.57-.42.32-.55.13-1.25-.42-1.57Z" fill="#efcb8f"/>
    <polygon points="59.33 200.45 59.33 206.93 63.89 206.93 63.89 205.77 60.68 205.77 60.68 200.45 59.33 200.45" fill="#efcb8f"/>
    <path d="M64.86,206.93h1.34v-2.33h1.38c.72,0,1.27-.16,1.66-.47s.58-.86.58-1.62c0-.7-.19-1.22-.58-1.55s-.91-.5-1.56-.5h-2.82v6.48ZM66.2,201.58h1.26c.32,0,.57.07.75.22.18.14.27.38.27.72s-.09.58-.26.74c-.18.16-.43.23-.75.23h-1.26v-1.91Z" fill="#efcb8f"/>
    <polygon points="64.04 250.13 64.04 243.65 62.7 243.65 62.7 246.12 60.17 246.12 60.17 243.65 58.82 243.65 58.82 250.13 60.17 250.13 60.17 247.24 62.7 247.24 62.7 250.13 64.04 250.13" fill="#efcb8f"/>
    <path d="M66.71,247.8h1.38c.72,0,1.27-.16,1.66-.47s.58-.86.58-1.62c0-.7-.19-1.22-.58-1.55s-.91-.5-1.56-.5h-2.82v6.48h1.34v-2.33ZM66.71,244.78h1.26c.32,0,.57.07.75.22.18.14.27.38.27.72s-.09.58-.26.74c-.18.16-.43.23-.75.23h-1.26v-1.91Z" fill="#efcb8f"/>
    <rect x="17.45" y="70.88" width="1.34" height="6.48" fill="#efcb8f"/>
    <polygon points="21.3 72.76 23.94 77.36 25.29 77.36 25.29 70.88 24.03 70.88 24.03 75.4 21.45 70.88 20.04 70.88 20.04 77.36 21.3 77.36 21.3 72.76" fill="#efcb8f"/>
    <polygon points="28.2 269.08 22.04 269.04 22.04 197.13 22.04 190.88 22.04 167.56 21.04 167.56 21.04 190.47 21.04 196.72 21.04 270.04 28.2 270.08 28.2 271.69 31.86 269.58 28.2 267.46 28.2 269.08" fill="#efcb8f"/>
    <polygon points="64.57 254.08 62.46 257.74 64.07 257.74 64.07 269.08 57.16 269.08 57.16 270.08 65.07 270.08 65.07 257.74 66.69 257.74 64.57 254.08" fill="#efcb8f"/>
    <path d="M46.25,279.41c.08,0,.16-.02.23-.07.11-.08.18-.21.18-.35v-4.87l.05.02c.05.02.1.03.16.03.16,0,.32-.1.39-.26.09-.21-.02-.46-.23-.54l-.36-.15v-4.99c0-.17-.1-.32-.26-.39l-10.76-4.37c-.13-.05-.27-.04-.39.04-.12.08-.18.21-.18.35v10.76c0,.17.1.32.26.39l10.76,4.37c.05.02.1.03.16.03ZM45.84,272.88l-.22-.09c-.21-.09-.46.02-.54.23-.09.21.02.46.23.54l.53.22v4.59l-9.92-4.03v-9.86l9.92,4.03v4.37Z" fill="#efcb8f"/>
    <path d="M52.9,275.75l-.2-.08c-.21-.09-.46.02-.54.23-.09.21.02.46.23.54l.77.31c.05.02.1.03.16.03.08,0,.16-.02.23-.07.11-.08.18-.21.18-.35v-.83c0-.23-.19-.42-.42-.42s-.42.19-.42.42v.22Z" fill="#efcb8f"/>
    <path d="M50.58,274.81l-1.42-.57c-.21-.09-.46.02-.54.23-.09.21.02.46.23.54l1.42.57c.05.02.1.03.16.03.16,0,.32-.1.39-.26.09-.21-.02-.46-.23-.54Z" fill="#efcb8f"/>
    <path d="M42.4,272.39l.77.31c.05.02.1.03.16.03.16,0,.32-.1.39-.26.09-.21-.02-.46-.23-.54l-.51-.21v-.55c0-.23-.19-.42-.42-.42s-.42.19-.42.42v.83c0,.17.1.32.26.39Z" fill="#efcb8f"/>
    <path d="M42.14,265.58c0,.23.19.42.42.42s.42-.19.42-.42v-1.4c0-.23-.19-.42-.42-.42s-.42.19-.42.42v1.4Z" fill="#efcb8f"/>
    <path d="M42.56,269.49c.23,0,.42-.19.42-.42v-1.4c0-.23-.19-.42-.42-.42s-.42.19-.42.42v1.4c0,.23.19.42.42.42Z" fill="#efcb8f"/>
    <path d="M42.56,262.5c.23,0,.42-.19.42-.42v-.22l.2.08c.21.09.46-.02.54-.23.09-.21-.02-.46-.23-.54l-.77-.31c-.13-.05-.27-.04-.39.04-.12.08-.18.21-.18.35v.83c0,.23.19.42.42.42Z" fill="#efcb8f"/>
    <path d="M50.58,264.05l-1.42-.58c-.21-.09-.46.02-.54.23-.09.21.02.46.23.54l1.42.58c.05.02.11.03.16.03.16,0,.32-.1.39-.26.09-.21-.02-.46-.23-.54Z" fill="#efcb8f"/>
    <path d="M47.03,262.61l-1.42-.57c-.21-.09-.46.02-.54.23-.09.21.02.46.23.54l1.42.57c.05.02.1.03.16.03.16,0,.32-.1.39-.26.09-.21-.02-.46-.23-.54Z" fill="#efcb8f"/>
    <path d="M53.48,265.22l-.77-.31c-.21-.09-.46.02-.54.23-.09.21.02.46.23.54l.51.21v.55c0,.23.19.42.42.42s.42-.19.42-.42v-.83c0-.17-.1-.32-.26-.39Z" fill="#efcb8f"/>
    <path d="M52.9,273.44c0,.23.19.42.42.42s.42-.19.42-.42v-1.4c0-.23-.19-.42-.42-.42s-.42.19-.42.42v1.4Z" fill="#efcb8f"/>
    <path d="M53.32,270.36c.23,0,.42-.19.42-.42v-1.4c0-.23-.19-.42-.42-.42s-.42.19-.42.42v1.4c0,.23.19.42.42.42Z" fill="#efcb8f"/>
    <path d="M32.92,329.13c-.23-.13-.49-.2-.75-.2h0c-.53,0-1.03.29-1.3.75-.2.35-.25.75-.15,1.14.1.39.35.71.7.91.23.13.49.2.75.2.53,0,1.03-.29,1.3-.75.41-.72.17-1.64-.55-2.05ZM33.04,330.93c-.19.32-.52.5-.87.5-.17,0-.34-.04-.5-.13-.48-.28-.64-.89-.37-1.37.19-.32.52-.5.87-.5.17,0,.34.04.5.13.48.28.64.89.37,1.37Z" fill="#efcb8f"/>
    <circle cx="64.57" cy="311.72" r="1.5" fill="#efcb8f"/>
    <circle cx="21.37" cy="311.72" r="1.5" fill="#efcb8f"/>
    <path d="M61.68,302.42c.25,0,.51-.06.75-.2.35-.2.6-.52.7-.91s.05-.79-.15-1.14c-.2-.35-.52-.59-.91-.7-.39-.1-.79-.05-1.14.15-.35.2-.6.52-.7.91-.1.39-.05.79.15,1.14.28.48.78.75,1.3.75Z" fill="#efcb8f"/>
    <path d="M24.65,321.07c-.39-.1-.79-.05-1.14.15-.72.41-.96,1.33-.55,2.05.28.48.78.75,1.3.75.25,0,.51-.06.75-.2.35-.2.6-.52.7-.91s.05-.79-.15-1.14-.52-.6-.91-.7Z" fill="#efcb8f"/>
    <path d="M53.02,294.31c.24.14.49.2.75.2.52,0,1.02-.27,1.3-.75.41-.72.17-1.64-.55-2.05-.35-.2-.75-.25-1.14-.15-.39.1-.71.35-.91.7-.2.35-.25.75-.15,1.14.1.39.35.71.7.91Z" fill="#efcb8f"/>
    <path d="M42.97,291.62c.83,0,1.5-.67,1.5-1.5,0-.83-.67-1.5-1.5-1.5s-1.5.67-1.5,1.5.67,1.5,1.5,1.5Z" fill="#efcb8f"/>
    <path d="M31.42,291.72c-.35.2-.59.52-.7.91-.1.39-.05.79.15,1.14.28.48.78.75,1.3.75.25,0,.51-.06.75-.2.71-.42.96-1.33.55-2.05-.42-.72-1.34-.96-2.05-.55Z" fill="#efcb8f"/>
    <path d="M53.02,329.13c-.35.2-.6.52-.7.91-.1.39-.05.79.15,1.14.2.35.52.6.91.7.13.03.26.05.39.05.26,0,.52-.07.75-.2.72-.41.96-1.33.55-2.05-.41-.72-1.33-.96-2.05-.55Z" fill="#efcb8f"/>
    <path d="M23.52,302.22c.24.14.49.2.75.2.52,0,1.03-.27,1.3-.75.41-.72.17-1.64-.55-2.05-.72-.41-1.64-.17-2.05.55-.2.35-.25.75-.15,1.14.1.39.35.71.7.91Z" fill="#efcb8f"/>
    <path d="M60.23,322.91c.1.39.35.71.7.91.24.14.49.2.75.2.52,0,1.02-.27,1.3-.75.41-.72.17-1.64-.55-2.05-.35-.2-.75-.25-1.14-.15-.39.1-.71.35-.91.7-.2.35-.25.75-.15,1.14Z" fill="#efcb8f"/>
    <path d="M36.97,338.32l-1.12-.27c-.43-.1-.71-.19-.84-.27-.21-.12-.31-.29-.31-.52,0-.25.1-.45.31-.59s.49-.21.84-.21c.31,0,.58.05.79.16.32.16.49.44.51.83h1.3c-.02-.69-.28-1.21-.76-1.58-.48-.36-1.06-.54-1.75-.54-.82,0-1.44.19-1.86.58s-.63.87-.63,1.45c0,.64.22,1.1.66,1.4.26.18.72.34,1.4.5l.69.15c.4.09.7.19.88.3.19.12.28.28.28.5,0,.37-.19.62-.57.75-.2.07-.46.11-.78.11-.53,0-.91-.13-1.13-.4-.12-.15-.2-.37-.24-.66h-1.29c0,.67.24,1.2.73,1.59.48.39,1.15.58,1.99.58s1.46-.2,1.92-.59c.45-.39.68-.88.68-1.47s-.19-1.02-.58-1.32c-.25-.2-.62-.35-1.11-.47Z" fill="#efcb8f"/>
    <rect x="39.56" y="335.53" width="1.34" height="6.48" fill="#efcb8f"/>
    <polygon points="46.74 336.62 46.74 335.53 41.79 335.53 41.79 336.68 45.05 336.68 41.71 340.87 41.71 342.01 46.75 342.01 46.75 340.87 43.35 340.87 46.74 336.62" fill="#efcb8f"/>
    <polygon points="52.61 340.85 49.02 340.85 49.02 339.18 52.17 339.18 52.17 338.06 49.02 338.06 49.02 336.68 52.45 336.68 52.45 335.53 47.7 335.53 47.7 342.01 52.61 342.01 52.61 340.85" fill="#efcb8f"/>
    <polygon points="20.53 158.4 20.53 157.26 15.94 157.26 15.94 163.73 17.29 163.73 17.29 161.01 20.13 161.01 20.13 159.89 17.29 159.89 17.29 158.4 20.53 158.4" fill="#efcb8f"/>
    <path d="M25.32,163.64c.28-.06.53-.17.74-.33.18-.14.34-.31.46-.51.19-.3.29-.65.29-1.03s-.08-.69-.25-.95c-.17-.26-.42-.45-.75-.57.22-.11.38-.23.49-.37.2-.24.3-.56.3-.95s-.1-.71-.3-.99c-.33-.45-.89-.68-1.69-.69h-3.15v6.48h2.94c.33,0,.64-.03.92-.09ZM22.75,158.38h1.42c.31,0,.57.03.77.1.23.1.35.3.35.6,0,.27-.09.46-.26.57-.18.11-.41.16-.7.16h-1.59v-1.43ZM22.75,162.6v-1.73h1.61c.28,0,.5.04.66.11.28.13.42.36.42.69,0,.4-.14.67-.43.81-.16.08-.38.11-.66.11h-1.59Z" fill="#efcb8f"/>
    <path d="M40.27,139.37h23.81s0,30.15,0,30.15c-.38.19-.65.57-.65,1.02,0,.63.51,1.15,1.15,1.15s1.15-.51,1.15-1.15c0-.45-.27-.84-.65-1.02v-31.16s-24.8,0-24.8,0v-1.65l-3.66,2.11,3.66,2.11v-1.57Z" fill="#efcb8f"/>
    <path d="M54.2,182.06c0-.63-.51-1.15-1.15-1.15s-1.15.51-1.15,1.15.51,1.15,1.15,1.15,1.15-.51,1.15-1.15Z" fill="#efcb8f"/>
    <path d="M74.94,182.06c0,.63.51,1.15,1.15,1.15s1.15-.51,1.15-1.15-.51-1.15-1.15-1.15-1.15.51-1.15,1.15Z" fill="#efcb8f"/>
    <path d="M54.02,186.83c-.55.32-.74,1.02-.42,1.57.32.55,1.02.74,1.57.42.55-.32.74-1.02.42-1.57-.32-.55-1.02-.74-1.57-.42Z" fill="#efcb8f"/>
    <path d="M75.12,177.3c.55-.32.74-1.02.42-1.57s-1.02-.74-1.57-.42c-.55.32-.74,1.02-.42,1.57.32.55,1.02.74,1.57.42Z" fill="#efcb8f"/>
    <path d="M58.24,193.03c.18.1.38.15.57.15.4,0,.78-.21,1-.57.32-.55.13-1.25-.42-1.57-.18-.1-.38-.15-.57-.15-.4,0-.78.21-1,.57-.32.55-.13,1.25.42,1.57ZM58.12,191.64c.14-.25.41-.4.69-.4.14,0,.28.04.4.11.38.22.51.71.29,1.09-.14.25-.41.4-.69.4-.14,0-.28-.04-.4-.11-.38-.22-.51-.71-.29-1.09Z" fill="#efcb8f"/>
    <path d="M69.76,173.08c.55.32,1.25.13,1.57-.42.32-.55.13-1.25-.42-1.57s-1.25-.13-1.57.42c-.32.55-.13,1.25.42,1.57Z" fill="#efcb8f"/>
    <path d="M70.91,193.03c.55-.32.74-1.02.42-1.57s-1.02-.74-1.57-.42c-.55.32-.74,1.02-.42,1.57.32.55,1.02.74,1.57.42Z" fill="#efcb8f"/>
    <path d="M59.39,173.08c.55-.32.74-1.02.42-1.57-.32-.55-1.02-.74-1.57-.42-.55.32-.74,1.02-.42,1.57.32.55,1.02.74,1.57.42Z" fill="#efcb8f"/>
    <path d="M73.98,188.82c.55.32,1.25.13,1.57-.42.32-.55.13-1.25-.42-1.57s-1.25-.13-1.57.42-.13,1.25.42,1.57Z" fill="#efcb8f"/>
    <path d="M55.17,175.31c-.55-.32-1.25-.13-1.57.42s-.13,1.25.42,1.57c.55.32,1.25.13,1.57-.42.32-.55.13-1.25-.42-1.57Z" fill="#efcb8f"/>
    <path d="M11,138.86c0-.63-.51-1.15-1.15-1.15s-1.15.51-1.15,1.15.51,1.15,1.15,1.15,1.15-.51,1.15-1.15Z" fill="#efcb8f"/>
    <path d="M31.74,138.86c0,.63.51,1.15,1.15,1.15s1.15-.51,1.15-1.15-.51-1.15-1.15-1.15-1.15.51-1.15,1.15Z" fill="#efcb8f"/>
    <path d="M10.82,143.63c-.55.32-.74,1.02-.42,1.57.32.55,1.02.74,1.57.42s.74-1.02.42-1.57c-.32-.55-1.02-.74-1.57-.42Z" fill="#efcb8f"/>
    <path d="M31.92,134.1c.55-.32.74-1.02.42-1.57-.32-.55-1.02-.74-1.57-.42s-.74,1.02-.42,1.57c.32.55,1.02.74,1.57.42Z" fill="#efcb8f"/>
    <path d="M15.61,149.99c.4,0,.78-.21,1-.57.32-.55.13-1.25-.42-1.57-.18-.1-.38-.15-.57-.15-.4,0-.78.21-1,.57-.32.55-.13,1.25.42,1.57.18.1.38.15.57.15ZM14.84,149.05c-.06-.21-.03-.42.08-.61.14-.25.41-.4.69-.4.14,0,.28.04.4.11.18.11.32.28.37.48.06.21.03.42-.08.61-.14.25-.41.4-.69.4-.14,0-.28-.04-.4-.11-.18-.11-.32-.28-.37-.48Z" fill="#efcb8f"/>
    <path d="M26.56,129.88c.55.32,1.25.13,1.57-.42.32-.55.13-1.25-.42-1.57-.55-.32-1.25-.13-1.57.42s-.13,1.25.42,1.57Z" fill="#efcb8f"/>
    <path d="M21.37,128.49c.63,0,1.15-.51,1.15-1.15s-.51-1.15-1.15-1.15-1.15.51-1.15,1.15.51,1.15,1.15,1.15Z" fill="#efcb8f"/>
    <path d="M27.71,149.83c.55-.32.74-1.02.42-1.57-.32-.55-1.02-.74-1.57-.42-.55.32-.74,1.02-.42,1.57.32.55,1.02.74,1.57.42Z" fill="#efcb8f"/>
    <path d="M16.19,129.88c.55-.32.74-1.02.42-1.57s-1.02-.74-1.57-.42c-.55.32-.74,1.02-.42,1.57.32.55,1.02.74,1.57.42Z" fill="#efcb8f"/>
    <path d="M32.34,145.2c.32-.55.13-1.25-.42-1.57-.55-.32-1.25-.13-1.57.42-.32.55-.13,1.25.42,1.57s1.25.13,1.57-.42Z" fill="#efcb8f"/>
    <path d="M11.97,132.11c-.55-.32-1.25-.13-1.57.42-.32.55-.13,1.25.42,1.57.55.32,1.25.13,1.57-.42.32-.55.13-1.25-.42-1.57Z" fill="#efcb8f"/>
    <g>
      <path d="M15.21,109.83h-2.79v-6.48h2.79c.4,0,.73.05,1,.14.45.15.82.42,1.1.82.23.32.38.67.46,1.05.08.38.12.73.12,1.07,0,.86-.17,1.59-.52,2.19-.47.81-1.19,1.21-2.17,1.21ZM16.22,105.01c-.21-.35-.62-.53-1.23-.53h-1.25v4.23h1.25c.64,0,1.08-.31,1.34-.94.14-.35.21-.76.21-1.23,0-.66-.1-1.17-.31-1.52Z" fill="#efcb8f"/>
      <path d="M21.67,107.29h-1.4v2.54h-1.32v-6.48h3.18c.45,0,.8.06,1.05.17.25.1.45.25.62.45.14.16.25.35.33.54s.12.43.12.68c0,.31-.08.61-.23.91-.16.3-.41.51-.77.63.3.12.51.29.63.51.12.22.19.56.19,1.01v.44c0,.3.01.5.04.6.04.17.12.29.25.37v.16h-1.49c-.04-.14-.07-.26-.09-.35-.04-.18-.05-.37-.06-.56v-.6c-.01-.41-.09-.69-.23-.83-.15-.14-.42-.21-.82-.21ZM22.5,106.11c.27-.12.4-.37.4-.73,0-.39-.13-.66-.39-.79-.15-.08-.37-.11-.66-.11h-1.57v1.74h1.53c.3,0,.53-.04.69-.11Z" fill="#efcb8f"/>
      <path d="M30.32,103.35l-2.17,4.04v2.43h-1.35v-2.43l-2.24-4.04h1.59l1.34,2.82,1.29-2.82h1.53Z" fill="#efcb8f"/>
    </g>
    <g>
      <path d="M61.55,103.35h1.38l-1.82,6.48h-1.29l-.78-3.79-.23-1.25-.23,1.25-.78,3.79h-1.26l-1.84-6.48h1.44l.86,3.71.18,1.03.19-1.01.73-3.73h1.43l.77,3.71.2,1.03.2-.99.87-3.75Z" fill="#efcb8f"/>
      <path d="M68.25,107h-3.15v1.67h3.59v1.16h-4.91v-6.48h4.75v1.15h-3.43v1.38h3.15v1.12Z" fill="#efcb8f"/>
      <path d="M74.45,103.35v1.15h-1.94v5.33h-1.36v-5.33h-1.95v-1.15h5.25Z" fill="#efcb8f"/>
    </g>
    <g>
      <path d="M53.56,356.53h-1.55v2.82h-1.47v-7.2h3.53c.5,0,.89.07,1.16.19.27.11.5.28.69.5.16.18.28.38.37.61s.14.47.14.76c0,.34-.09.68-.26,1.01-.17.33-.46.56-.85.7.33.13.57.32.71.57.14.25.21.62.21,1.13v.48c0,.33.01.55.04.67.04.19.13.32.27.41v.18h-1.66c-.05-.16-.08-.29-.1-.39-.04-.2-.06-.41-.06-.62v-.67c-.02-.46-.1-.76-.26-.92-.16-.15-.46-.23-.91-.23ZM54.47,355.23c.3-.14.45-.41.45-.81,0-.44-.14-.73-.43-.88-.16-.08-.41-.13-.73-.13h-1.75v1.93h1.7c.34,0,.59-.04.76-.12Z" fill="#efcb8f"/>
      <path d="M60.91,359.56c-1.03,0-1.81-.28-2.36-.84-.73-.69-1.09-1.68-1.09-2.97s.36-2.31,1.09-2.97c.54-.56,1.33-.84,2.36-.84s1.81.28,2.36.84c.73.66,1.09,1.65,1.09,2.97s-.36,2.28-1.09,2.97c-.54.56-1.33.84-2.36.84ZM62.33,357.62c.35-.44.52-1.06.52-1.88s-.17-1.43-.53-1.87c-.35-.44-.82-.66-1.42-.66s-1.07.22-1.43.66-.53,1.06-.53,1.88.18,1.44.53,1.88.83.66,1.43.66,1.07-.22,1.42-.66Z" fill="#efcb8f"/>
      <path d="M68.69,359.56c-1.03,0-1.81-.28-2.36-.84-.73-.69-1.09-1.68-1.09-2.97s.36-2.31,1.09-2.97c.54-.56,1.33-.84,2.36-.84s1.81.28,2.36.84c.73.66,1.09,1.65,1.09,2.97s-.36,2.28-1.09,2.97c-.54.56-1.33.84-2.36.84ZM70.11,357.62c.35-.44.52-1.06.52-1.88s-.17-1.43-.53-1.87c-.35-.44-.82-.66-1.42-.66s-1.07.22-1.43.66-.53,1.06-.53,1.88.18,1.44.53,1.88.83.66,1.43.66,1.07-.22,1.42-.66Z" fill="#efcb8f"/>
      <path d="M74.66,359.36h-1.4v-7.2h2.19l1.31,5.66,1.3-5.66h2.16v7.2h-1.4v-4.87c0-.14,0-.34,0-.59,0-.25,0-.45,0-.58l-1.36,6.04h-1.46l-1.35-6.04c0,.14,0,.33,0,.58,0,.25,0,.45,0,.59v4.87Z" fill="#efcb8f"/>
    </g>
    <path d="M46.75,3.37l-1.67,1.67-1.67,1.67-1.67,1.67-1.67,1.67-1.67,1.67-1.67,1.67-1.67,1.67-1.67,1.67H3.25v330.73h78.54V3.37h-35.05ZM80.79,346.46H4.25V17.73h29.54l1.67-1.67,1.67-1.67,1.67-1.67,1.67-1.67,1.67-1.67,1.67-1.67,1.67-1.67,1.67-1.67h33.63v342.09h0Z" fill="#efca8f"/>
  </g>
</svg>