<?xml version='1.0' encoding='UTF-8'?>
<svg xmlns="http://www.w3.org/2000/svg" xmlns:xlink="http://www.w3.org/1999/xlink" width="9.5249mm" height="8.2479mm" viewBox="50.6200 40.8300 27.0000 23.3800"><defs>
    <linearGradient id="linear-gradient" x1="63.05" y1="64.71" x2="65.19" y2="40.33" gradientUnits="userSpaceOnUse">
      <stop offset="0" stop-color="#b83330" />
      <stop offset="1" stop-color="#f0624a" />
    </linearGradient>
    <linearGradient id="linear-gradient-2" x1="19.85" y1="107.91" x2="21.99" y2="83.53" gradientUnits="userSpaceOnUse">
      <stop offset="0" stop-color="#444" />
      <stop offset="1" stop-color="#a4a4a4" />
    </linearGradient>
    <linearGradient id="linear-gradient-3" x1="63.05" x2="65.19" xlink:href="#linear-gradient-2" />
    <linearGradient id="linear-gradient-4" x1="19.85" y1="151.11" x2="21.99" y2="126.73" xlink:href="#linear-gradient-2" />
    <linearGradient id="linear-gradient-5" x1="63.14" y1="151.11" x2="65.27" y2="126.73" xlink:href="#linear-gradient-2" />
  </defs>
  <g>
      <polygon points="57.37 64.21 50.62 52.52 57.37 40.83 70.87 40.83 77.62 52.52 70.87 64.21 57.37 64.21" fill="url(#linear-gradient)" />
      <g>
        <path d="M64.12,61.55c-5.01,0-9.09-4.08-9.09-9.09s4.08-9.09,9.09-9.09,9.09,4.08,9.09,9.09-4.08,9.09-9.09,9.09Z" fill="#d9d8d7" />
        <path d="M64.12,43.86c4.74,0,8.59,3.86,8.59,8.59s-3.86,8.59-8.59,8.59-8.59-3.86-8.59-8.59,3.86-8.59,8.59-8.59M64.12,42.86c-5.3,0-9.59,4.3-9.59,9.59s4.29,9.59,9.59,9.59,9.59-4.3,9.59-9.59-4.3-9.59-9.59-9.59h0Z" fill="#c4c3c3" />
      </g>
      <path d="M71.28,52.45c0,3.96-3.21,7.16-7.16,7.16s-7.16-3.21-7.16-7.16,3.21-7.16,7.16-7.16,7.16,3.21,7.16,7.16Z" fill="#989798" />
      <path d="M69.22,52.45c0,2.82-2.28,5.1-5.1,5.1s-5.1-2.28-5.1-5.1,2.28-5.1,5.1-5.1,5.1,2.28,5.1,5.1Z" fill="#010101" />
    </g>
    </svg>